<mxfile host="app.diagrams.net" agent="Mozilla/5.0 (Windows NT 10.0; Win64; x64) AppleWebKit/537.36 (KHTML, like Gecko) Chrome/136.0.0.0 Safari/537.36" version="27.0.3">
  <diagram name="Page-1" id="X9FE6wxdBk4hRzBZMHpg">
    <mxGraphModel dx="2528" dy="914" grid="1" gridSize="10" guides="0" tooltips="1" connect="1" arrows="1" fold="1" page="1" pageScale="1" pageWidth="850" pageHeight="1100" math="0" shadow="0">
      <root>
        <mxCell id="0" />
        <mxCell id="1" parent="0" />
        <mxCell id="W9kaxFsbYueGBNVBafds-25" value="" style="edgeStyle=orthogonalEdgeStyle;rounded=0;orthogonalLoop=1;jettySize=auto;html=1;" parent="1" source="W9kaxFsbYueGBNVBafds-1" target="W9kaxFsbYueGBNVBafds-2" edge="1">
          <mxGeometry relative="1" as="geometry" />
        </mxCell>
        <mxCell id="W9kaxFsbYueGBNVBafds-1" value="Bắt đầu" style="ellipse;whiteSpace=wrap;html=1;" parent="1" vertex="1">
          <mxGeometry x="280" y="50" width="120" height="80" as="geometry" />
        </mxCell>
        <mxCell id="W9kaxFsbYueGBNVBafds-26" value="" style="edgeStyle=orthogonalEdgeStyle;rounded=0;orthogonalLoop=1;jettySize=auto;html=1;" parent="1" source="W9kaxFsbYueGBNVBafds-2" target="W9kaxFsbYueGBNVBafds-23" edge="1">
          <mxGeometry relative="1" as="geometry" />
        </mxCell>
        <mxCell id="W9kaxFsbYueGBNVBafds-2" value="Bot được thêm vào server" style="rounded=0;whiteSpace=wrap;html=1;" parent="1" vertex="1">
          <mxGeometry x="280" y="160" width="120" height="60" as="geometry" />
        </mxCell>
        <mxCell id="W9kaxFsbYueGBNVBafds-61" style="edgeStyle=orthogonalEdgeStyle;rounded=0;orthogonalLoop=1;jettySize=auto;html=1;entryX=0.5;entryY=0;entryDx=0;entryDy=0;" parent="1" target="W9kaxFsbYueGBNVBafds-18" edge="1">
          <mxGeometry relative="1" as="geometry">
            <mxPoint x="545.0000000000002" y="820" as="sourcePoint" />
          </mxGeometry>
        </mxCell>
        <mxCell id="W9kaxFsbYueGBNVBafds-10" value="&lt;br&gt;Tạo intents.json&lt;div&gt;&lt;br/&gt;&lt;/div&gt;" style="rounded=0;whiteSpace=wrap;html=1;" parent="1" vertex="1">
          <mxGeometry x="90" y="270" width="120" height="60" as="geometry" />
        </mxCell>
        <mxCell id="W9kaxFsbYueGBNVBafds-52" style="edgeStyle=orthogonalEdgeStyle;rounded=0;orthogonalLoop=1;jettySize=auto;html=1;" parent="1" source="W9kaxFsbYueGBNVBafds-11" target="W9kaxFsbYueGBNVBafds-24" edge="1">
          <mxGeometry relative="1" as="geometry" />
        </mxCell>
        <mxCell id="W9kaxFsbYueGBNVBafds-11" value="Người dùng gửi tin nhắn" style="rounded=0;whiteSpace=wrap;html=1;" parent="1" vertex="1">
          <mxGeometry x="280" y="470" width="120" height="40" as="geometry" />
        </mxCell>
        <mxCell id="W9kaxFsbYueGBNVBafds-12" value="&lt;br&gt;Huấn luyện mô hình&amp;nbsp;" style="rounded=0;whiteSpace=wrap;html=1;spacingTop=-8;" parent="1" vertex="1">
          <mxGeometry x="90" y="570" width="120" height="60" as="geometry" />
        </mxCell>
        <mxCell id="W9kaxFsbYueGBNVBafds-36" style="edgeStyle=orthogonalEdgeStyle;rounded=0;orthogonalLoop=1;jettySize=auto;html=1;entryX=0.5;entryY=0;entryDx=0;entryDy=0;" parent="1" source="W9kaxFsbYueGBNVBafds-13" target="W9kaxFsbYueGBNVBafds-11" edge="1">
          <mxGeometry relative="1" as="geometry" />
        </mxCell>
        <mxCell id="W9kaxFsbYueGBNVBafds-13" value="&#xa;Tải mô hình, vectorizer, intents&#xa;&#xa;" style="rounded=0;whiteSpace=wrap;html=1;" parent="1" vertex="1">
          <mxGeometry x="280" y="380" width="120" height="60" as="geometry" />
        </mxCell>
        <mxCell id="W9kaxFsbYueGBNVBafds-56" value="" style="edgeStyle=orthogonalEdgeStyle;rounded=0;orthogonalLoop=1;jettySize=auto;html=1;" parent="1" source="W9kaxFsbYueGBNVBafds-14" target="W9kaxFsbYueGBNVBafds-17" edge="1">
          <mxGeometry relative="1" as="geometry" />
        </mxCell>
        <mxCell id="W9kaxFsbYueGBNVBafds-14" value="Dự đoán phản hồi" style="rounded=0;whiteSpace=wrap;html=1;" parent="1" vertex="1">
          <mxGeometry x="280" y="680" width="120" height="50" as="geometry" />
        </mxCell>
        <mxCell id="W9kaxFsbYueGBNVBafds-15" value="Trả lời người dùng" style="rounded=0;whiteSpace=wrap;html=1;" parent="1" vertex="1">
          <mxGeometry x="270" y="920" width="140" height="60" as="geometry" />
        </mxCell>
        <mxCell id="W9kaxFsbYueGBNVBafds-47" value="" style="edgeStyle=orthogonalEdgeStyle;rounded=0;orthogonalLoop=1;jettySize=auto;html=1;" parent="1" source="W9kaxFsbYueGBNVBafds-17" target="W9kaxFsbYueGBNVBafds-15" edge="1">
          <mxGeometry relative="1" as="geometry" />
        </mxCell>
        <mxCell id="W9kaxFsbYueGBNVBafds-58" style="edgeStyle=orthogonalEdgeStyle;rounded=0;orthogonalLoop=1;jettySize=auto;html=1;exitX=1;exitY=0.5;exitDx=0;exitDy=0;entryX=0;entryY=0.5;entryDx=0;entryDy=0;" parent="1" source="W9kaxFsbYueGBNVBafds-17" edge="1">
          <mxGeometry relative="1" as="geometry">
            <mxPoint x="490" y="800" as="targetPoint" />
          </mxGeometry>
        </mxCell>
        <mxCell id="W9kaxFsbYueGBNVBafds-17" value="Dự đoán có độ tin cậy trên&lt;div&gt;&amp;nbsp;40% không?&lt;/div&gt;" style="rhombus;whiteSpace=wrap;html=1;fontSize=12;spacingLeft=0;spacingTop=15;" parent="1" vertex="1">
          <mxGeometry x="240" y="750" width="200" height="100" as="geometry" />
        </mxCell>
        <mxCell id="W9kaxFsbYueGBNVBafds-69" style="edgeStyle=orthogonalEdgeStyle;rounded=0;orthogonalLoop=1;jettySize=auto;html=1;exitX=1;exitY=0.5;exitDx=0;exitDy=0;entryX=1;entryY=0.5;entryDx=0;entryDy=0;" parent="1" source="W9kaxFsbYueGBNVBafds-18" target="W9kaxFsbYueGBNVBafds-11" edge="1">
          <mxGeometry relative="1" as="geometry">
            <Array as="points">
              <mxPoint x="740" y="880" />
              <mxPoint x="740" y="490" />
            </Array>
          </mxGeometry>
        </mxCell>
        <mxCell id="W9kaxFsbYueGBNVBafds-18" value="&lt;div&gt;Người dùng nhập /reply&amp;nbsp;&lt;/div&gt;&lt;div&gt;hay không?&lt;/div&gt;" style="rhombus;whiteSpace=wrap;html=1;fontSize=12;spacingLeft=0;spacingTop=15;" parent="1" vertex="1">
          <mxGeometry x="460" y="850" width="170" height="60" as="geometry" />
        </mxCell>
        <mxCell id="W9kaxFsbYueGBNVBafds-19" value="Kết thúc" style="ellipse;whiteSpace=wrap;html=1;" parent="1" vertex="1">
          <mxGeometry x="550" y="310" width="120" height="80" as="geometry" />
        </mxCell>
        <mxCell id="W9kaxFsbYueGBNVBafds-27" value="" style="edgeStyle=orthogonalEdgeStyle;rounded=0;orthogonalLoop=1;jettySize=auto;html=1;" parent="1" source="W9kaxFsbYueGBNVBafds-23" target="W9kaxFsbYueGBNVBafds-10" edge="1">
          <mxGeometry relative="1" as="geometry" />
        </mxCell>
        <mxCell id="W9kaxFsbYueGBNVBafds-31" value="" style="edgeStyle=orthogonalEdgeStyle;rounded=0;orthogonalLoop=1;jettySize=auto;html=1;" parent="1" source="W9kaxFsbYueGBNVBafds-23" target="W9kaxFsbYueGBNVBafds-13" edge="1">
          <mxGeometry relative="1" as="geometry" />
        </mxCell>
        <mxCell id="W9kaxFsbYueGBNVBafds-23" value="&lt;font style=&quot;font-size: 14px;&quot;&gt;Đã có intents chưa?&lt;/font&gt;" style="rhombus;whiteSpace=wrap;html=1;fontSize=12;spacingLeft=0;spacingTop=6;" parent="1" vertex="1">
          <mxGeometry x="252.5" y="250" width="175" height="100" as="geometry" />
        </mxCell>
        <mxCell id="W9kaxFsbYueGBNVBafds-53" style="edgeStyle=orthogonalEdgeStyle;rounded=0;orthogonalLoop=1;jettySize=auto;html=1;exitX=0;exitY=0.5;exitDx=0;exitDy=0;entryX=1;entryY=0.5;entryDx=0;entryDy=0;" parent="1" source="W9kaxFsbYueGBNVBafds-24" target="W9kaxFsbYueGBNVBafds-12" edge="1">
          <mxGeometry relative="1" as="geometry" />
        </mxCell>
        <mxCell id="W9kaxFsbYueGBNVBafds-54" style="edgeStyle=orthogonalEdgeStyle;rounded=0;orthogonalLoop=1;jettySize=auto;html=1;exitX=0.5;exitY=1;exitDx=0;exitDy=0;entryX=0.5;entryY=0;entryDx=0;entryDy=0;" parent="1" source="W9kaxFsbYueGBNVBafds-24" target="W9kaxFsbYueGBNVBafds-14" edge="1">
          <mxGeometry relative="1" as="geometry" />
        </mxCell>
        <mxCell id="W9kaxFsbYueGBNVBafds-24" value="&lt;font style=&quot;font-size: 15px;&quot;&gt;Lệnh /train hoặc&lt;/font&gt;&lt;div&gt;&lt;font style=&quot;font-size: 15px;&quot;&gt;&amp;nbsp;/refresh?&lt;/font&gt;&lt;/div&gt;" style="rhombus;whiteSpace=wrap;html=1;fontSize=12;spacingLeft=0;spacingTop=7;" parent="1" vertex="1">
          <mxGeometry x="250" y="550" width="180" height="100" as="geometry" />
        </mxCell>
        <mxCell id="W9kaxFsbYueGBNVBafds-71" style="edgeStyle=orthogonalEdgeStyle;rounded=0;orthogonalLoop=1;jettySize=auto;html=1;exitX=1;exitY=0.5;exitDx=0;exitDy=0;entryX=1;entryY=0.5;entryDx=0;entryDy=0;" parent="1" source="W9kaxFsbYueGBNVBafds-45" target="W9kaxFsbYueGBNVBafds-11" edge="1">
          <mxGeometry relative="1" as="geometry">
            <Array as="points">
              <mxPoint x="600" y="970" />
              <mxPoint x="810" y="970" />
              <mxPoint x="810" y="490" />
            </Array>
          </mxGeometry>
        </mxCell>
        <mxCell id="W9kaxFsbYueGBNVBafds-45" value="Huấn luyện lại mô hình (nếu có lệnh /train)" style="rounded=0;whiteSpace=wrap;html=1;" parent="1" vertex="1">
          <mxGeometry x="480" y="960" width="120" height="60" as="geometry" />
        </mxCell>
        <mxCell id="W9kaxFsbYueGBNVBafds-48" value="có" style="text;html=1;align=center;verticalAlign=middle;whiteSpace=wrap;rounded=0;" parent="1" vertex="1">
          <mxGeometry x="210" y="560" width="60" height="30" as="geometry" />
        </mxCell>
        <mxCell id="W9kaxFsbYueGBNVBafds-55" value="có" style="text;html=1;align=center;verticalAlign=middle;whiteSpace=wrap;rounded=0;" parent="1" vertex="1">
          <mxGeometry x="330" y="850" width="60" height="30" as="geometry" />
        </mxCell>
        <mxCell id="W9kaxFsbYueGBNVBafds-62" style="edgeStyle=orthogonalEdgeStyle;rounded=0;orthogonalLoop=1;jettySize=auto;html=1;entryX=0.546;entryY=0.036;entryDx=0;entryDy=0;entryPerimeter=0;" parent="1" source="W9kaxFsbYueGBNVBafds-18" target="W9kaxFsbYueGBNVBafds-45" edge="1">
          <mxGeometry relative="1" as="geometry" />
        </mxCell>
        <mxCell id="W9kaxFsbYueGBNVBafds-63" value="không" style="text;html=1;align=center;verticalAlign=middle;whiteSpace=wrap;rounded=0;" parent="1" vertex="1">
          <mxGeometry x="210" y="270" width="60" height="30" as="geometry" />
        </mxCell>
        <UserObject label="&#xa;&lt;span style=&quot;color: rgb(0, 0, 0); font-family: Helvetica; font-size: 12px; font-style: normal; font-variant-ligatures: normal; font-variant-caps: normal; font-weight: 400; letter-spacing: normal; orphans: 2; text-align: center; text-indent: 0px; text-transform: none; widows: 2; word-spacing: 0px; -webkit-text-stroke-width: 0px; white-space: normal; background-color: rgb(236, 236, 236); text-decoration-thickness: initial; text-decoration-style: initial; text-decoration-color: initial; display: inline !important; float: none;&quot;&gt;Lưu câu hỏi vào pending_data.json&lt;/span&gt;&#xa;&#xa;" link="&#xa;&lt;span style=&quot;color: rgb(0, 0, 0); font-family: Helvetica; font-size: 12px; font-style: normal; font-variant-ligatures: normal; font-variant-caps: normal; font-weight: 400; letter-spacing: normal; orphans: 2; text-align: center; text-indent: 0px; text-transform: none; widows: 2; word-spacing: 0px; -webkit-text-stroke-width: 0px; white-space: normal; background-color: rgb(236, 236, 236); text-decoration-thickness: initial; text-decoration-style: initial; text-decoration-color: initial; display: inline !important; float: none;&quot;&gt;Lưu câu hỏi vào pending_data.json&lt;/span&gt;&#xa;&#xa;" id="W9kaxFsbYueGBNVBafds-64">
          <mxCell style="rounded=0;whiteSpace=wrap;html=1;" parent="1" vertex="1">
            <mxGeometry x="490" y="760" width="120" height="60" as="geometry" />
          </mxCell>
        </UserObject>
        <mxCell id="W9kaxFsbYueGBNVBafds-66" value="có" style="text;html=1;align=center;verticalAlign=middle;whiteSpace=wrap;rounded=0;" parent="1" vertex="1">
          <mxGeometry x="330" y="350" width="60" height="30" as="geometry" />
        </mxCell>
        <mxCell id="W9kaxFsbYueGBNVBafds-67" value="không" style="text;html=1;align=center;verticalAlign=middle;whiteSpace=wrap;rounded=0;" parent="1" vertex="1">
          <mxGeometry x="350" y="650" width="60" height="30" as="geometry" />
        </mxCell>
        <mxCell id="W9kaxFsbYueGBNVBafds-68" value="có" style="text;html=1;align=center;verticalAlign=middle;whiteSpace=wrap;rounded=0;" parent="1" vertex="1">
          <mxGeometry x="530" y="910" width="60" height="30" as="geometry" />
        </mxCell>
        <mxCell id="W9kaxFsbYueGBNVBafds-70" value="không" style="text;html=1;align=center;verticalAlign=middle;whiteSpace=wrap;rounded=0;" parent="1" vertex="1">
          <mxGeometry x="680" y="680" width="60" height="30" as="geometry" />
        </mxCell>
        <mxCell id="iR-BTrcZEytynv-fDFyq-2" value="&lt;br&gt;Tạo intents.json&lt;div&gt;&lt;br/&gt;&lt;/div&gt;" style="rounded=0;whiteSpace=wrap;html=1;" vertex="1" parent="1">
          <mxGeometry x="-150" y="380" width="120" height="60" as="geometry" />
        </mxCell>
      </root>
    </mxGraphModel>
  </diagram>
</mxfile>
